<svg width="44" height="44" viewBox="0 0 44 44" fill="none" xmlns="http://www.w3.org/2000/svg">
<rect width="44" height="44" rx="12" fill="#F5F5FF"/>
<path fill-rule="evenodd" clip-rule="evenodd" d="M13.528 17.6949C12.8263 18.1335 12.4 18.9026 12.4 19.7301V29.1999C12.4 30.5254 13.4745 31.5999 14.8 31.5999H29.2C30.5255 31.5999 31.6 30.5254 31.6 29.1999V19.7301C31.6 18.9026 31.1737 18.1335 30.472 17.6949L23.272 13.1949C22.4938 12.7085 21.5063 12.7085 20.728 13.1949L13.528 17.6949ZM16.6657 20.6015C16.1142 20.2339 15.3692 20.3829 15.0016 20.9344C14.6339 21.4858 14.7829 22.2308 15.3344 22.5985L21.3344 26.5985C21.7375 26.8672 22.2626 26.8672 22.6657 26.5985L28.6657 22.5985C29.2171 22.2308 29.3661 21.4858 28.9985 20.9344C28.6309 20.3829 27.8858 20.2339 27.3344 20.6015L22 24.1578L16.6657 20.6015Z" fill="#101010"/>
</svg>
