<svg width="48" height="48" viewBox="0 0 48 48" fill="none" xmlns="http://www.w3.org/2000/svg">
<circle cx="24" cy="24" r="24" fill="#F5F5FF"/>
<path fill-rule="evenodd" clip-rule="evenodd" d="M24 33.5999C29.302 33.5999 33.6 29.3018 33.6 23.9999C33.6 18.698 29.302 14.3999 24 14.3999C18.6981 14.3999 14.4 18.698 14.4 23.9999C14.4 29.3018 18.6981 33.5999 24 33.5999ZM22.4486 20.7514C21.9799 20.2827 21.2201 20.2827 20.7515 20.7514C20.2829 21.22 20.2829 21.9798 20.7515 22.4484L22.303 23.9999L20.7515 25.5514C20.2829 26.02 20.2829 26.7798 20.7515 27.2484C21.2201 27.7171 21.9799 27.7171 22.4486 27.2484L24 25.697L25.5515 27.2484C26.0201 27.7171 26.7799 27.7171 27.2486 27.2484C27.7172 26.7798 27.7172 26.02 27.2486 25.5514L25.6971 23.9999L27.2486 22.4484C27.7172 21.9798 27.7172 21.22 27.2486 20.7514C26.7799 20.2827 26.0201 20.2827 25.5515 20.7514L24 22.3028L22.4486 20.7514Z" fill="#D93A3A"/>
</svg>
