<svg width="44" height="44" viewBox="0 0 44 44" fill="none" xmlns="http://www.w3.org/2000/svg">
<rect width="44" height="44" rx="12" fill="#F5F5FF"/>
<path d="M31.98 21.41C31.64 15.61 26.37 11.14 20.3 12.14C16.12 12.83 12.77 16.2199 12.12 20.3999C11.74 22.8199 12.2401 25.1099 13.3301 26.9999L12.4401 30.3099C12.2401 31.0599 12.93 31.7399 13.67 31.5299L16.93 30.63C18.41 31.5 20.14 31.9999 21.99 31.9999C27.63 31.9999 32.31 27.03 31.98 21.41ZM26.8801 25.7199C26.7901 25.8999 26.68 26.07 26.54 26.23C26.29 26.5 26.02 26.7 25.72 26.82C25.42 26.95 25.09 27.01 24.74 27.01C24.23 27.01 23.68 26.89 23.11 26.64C22.53 26.39 21.9601 26.0599 21.3901 25.6499C20.8101 25.2299 20.2701 24.7599 19.7501 24.2499C19.2301 23.7299 18.77 23.1799 18.35 22.6099C17.94 22.0399 17.61 21.4699 17.37 20.8999C17.13 20.3299 17.0101 19.78 17.0101 19.26C17.0101 18.92 17.0701 18.59 17.1901 18.29C17.3101 17.98 17.5001 17.7 17.7701 17.45C18.0901 17.13 18.4401 16.98 18.8101 16.98C18.9501 16.98 19.09 17.01 19.22 17.07C19.35 17.13 19.4701 17.22 19.5601 17.35L20.72 18.9899C20.81 19.1199 20.88 19.2299 20.92 19.3399C20.97 19.4499 20.99 19.5499 20.99 19.6499C20.99 19.7699 20.9501 19.89 20.8801 20.01C20.8101 20.13 20.72 20.2499 20.6 20.3699L20.22 20.7699C20.16 20.8299 20.1401 20.8899 20.1401 20.9699C20.1401 21.0099 20.15 21.0499 20.16 21.0899C20.18 21.1299 20.1901 21.16 20.2001 21.1899C20.2901 21.36 20.45 21.5699 20.67 21.8299C20.9 22.0899 21.1401 22.3599 21.4001 22.6199C21.6701 22.8899 21.9301 23.1299 22.2001 23.3599C22.4601 23.5799 22.68 23.73 22.85 23.82C22.88 23.83 22.9101 23.8499 22.9401 23.8599C22.9801 23.8799 23.0201 23.88 23.0701 23.88C23.1601 23.88 23.2201 23.85 23.2801 23.79L23.66 23.41C23.79 23.28 23.9101 23.19 24.0201 23.13C24.1401 23.06 24.2501 23.0199 24.3801 23.0199C24.4801 23.0199 24.5801 23.0399 24.6901 23.0899C24.8001 23.1399 24.92 23.2 25.04 23.29L26.7001 24.4699C26.8301 24.5599 26.92 24.67 26.98 24.79C27.03 24.92 27.0601 25.0399 27.0601 25.1799C27.0001 25.3499 26.9601 25.5399 26.8801 25.7199Z" fill="#101010"/>
</svg>
