<svg width="28" height="28" viewBox="0 0 28 28" fill="none" xmlns="http://www.w3.org/2000/svg">
<rect width="28" height="28" rx="8" fill="#F5F5FF"/>
<path d="M19 11.5V14M19 14V16.5M19 14H21.5M19 14H16.5M14.8333 9.83333C14.8333 11.6743 13.3409 13.1667 11.5 13.1667C9.65905 13.1667 8.16667 11.6743 8.16667 9.83333C8.16667 7.99238 9.65905 6.5 11.5 6.5C13.3409 6.5 14.8333 7.99238 14.8333 9.83333ZM6.5 20.6667C6.5 17.9052 8.73858 15.6667 11.5 15.6667C14.2614 15.6667 16.5 17.9052 16.5 20.6667V21.5H6.5V20.6667Z" stroke="#101010" stroke-width="1.5" stroke-linecap="round" stroke-linejoin="round"/>
</svg>
