<svg width="24" height="24" viewBox="0 0 24 24" fill="none" xmlns="http://www.w3.org/2000/svg">
<path d="M12.8486 2.75137C12.3799 2.28275 11.6201 2.28275 11.1515 2.75137L2.7515 11.1514C2.28287 11.62 2.28287 12.3798 2.7515 12.8484C3.22013 13.3171 3.97992 13.3171 4.44855 12.8484L4.80002 12.497V20.3999C4.80002 21.0626 5.33728 21.5999 6.00002 21.5999H8.40002C9.06277 21.5999 9.60002 21.0626 9.60002 20.3999V17.9999C9.60002 17.3372 10.1373 16.7999 10.8 16.7999H13.2C13.8628 16.7999 14.4 17.3372 14.4 17.9999V20.3999C14.4 21.0626 14.9373 21.5999 15.6 21.5999H18C18.6628 21.5999 19.2 21.0626 19.2 20.3999V12.497L19.5515 12.8484C20.0201 13.3171 20.7799 13.3171 21.2486 12.8484C21.7172 12.3798 21.7172 11.62 21.2486 11.1514L12.8486 2.75137Z" fill="#FE8C00"/>
</svg>
