<svg width="48" height="48" viewBox="0 0 48 48" fill="none" xmlns="http://www.w3.org/2000/svg">
<circle cx="24" cy="24" r="24" fill="#F5F5FF"/>
<path d="M16.8 16.7998C15.4745 16.7998 14.4 17.8743 14.4 19.1998V20.3998H33.6V19.1998C33.6 17.8743 32.5255 16.7998 31.2 16.7998H16.8Z" fill="#FE8C00"/>
<path fill-rule="evenodd" clip-rule="evenodd" d="M33.6 22.7998H14.4V28.7998C14.4 30.1253 15.4745 31.1998 16.8 31.1998H31.2C32.5255 31.1998 33.6 30.1253 33.6 28.7998V22.7998ZM16.8 27.5998C16.8 26.9371 17.3373 26.3998 18 26.3998H19.2C19.8628 26.3998 20.4 26.9371 20.4 27.5998C20.4 28.2625 19.8628 28.7998 19.2 28.7998H18C17.3373 28.7998 16.8 28.2625 16.8 27.5998ZM22.8 26.3998C22.1373 26.3998 21.6 26.9371 21.6 27.5998C21.6 28.2625 22.1373 28.7998 22.8 28.7998H24C24.6628 28.7998 25.2 28.2625 25.2 27.5998C25.2 26.9371 24.6628 26.3998 24 26.3998H22.8Z" fill="#FE8C00"/>
</svg>
