<svg width="48" height="48" viewBox="0 0 48 48" fill="none" xmlns="http://www.w3.org/2000/svg">
<circle cx="24" cy="24" r="24" fill="#F5F5FF"/>
<path fill-rule="evenodd" clip-rule="evenodd" d="M24 33.5999C29.302 33.5999 33.6 29.3018 33.6 23.9999C33.6 18.698 29.302 14.3999 24 14.3999C18.6981 14.3999 14.4 18.698 14.4 23.9999C14.4 29.3018 18.6981 33.5999 24 33.5999ZM28.4486 22.4484C28.9172 21.9798 28.9172 21.22 28.4486 20.7514C27.9799 20.2827 27.2201 20.2827 26.7515 20.7514L22.8 24.7028L21.2486 23.1514C20.7799 22.6827 20.0201 22.6827 19.5515 23.1514C19.0829 23.62 19.0829 24.3798 19.5515 24.8484L21.9515 27.2484C22.4201 27.7171 23.1799 27.7171 23.6486 27.2484L28.4486 22.4484Z" fill="#27AE60"/>
</svg>
