<svg width="10" height="23" viewBox="0 0 10 23" fill="none" xmlns="http://www.w3.org/2000/svg">
<path d="M9.225 13.91C9.225 14.48 9.07 15.005 8.76 15.485C8.46 15.955 8.015 16.335 7.425 16.625C6.845 16.915 6.145 17.075 5.325 17.105V18.305H4.38V17.075C3.28 16.975 2.38 16.64 1.68 16.07C0.99 15.5 0.625 14.725 0.585 13.745H3.72C3.76 14.255 3.98 14.59 4.38 14.75V12.83C3.54 12.6 2.88 12.39 2.4 12.2C1.92 12 1.49 11.68 1.11 11.24C0.74 10.8 0.555 10.2 0.555 9.44C0.555 8.81 0.72 8.265 1.05 7.805C1.39 7.335 1.85 6.975 2.43 6.725C3.01 6.465 3.66 6.315 4.38 6.275V5.06H5.325V6.275C6.435 6.355 7.315 6.675 7.965 7.235C8.625 7.795 8.99 8.565 9.06 9.545H5.895C5.855 9.085 5.665 8.78 5.325 8.63V10.535L5.7 10.655C6.42 10.855 7.015 11.065 7.485 11.285C7.965 11.495 8.375 11.815 8.715 12.245C9.055 12.665 9.225 13.22 9.225 13.91ZM3.69 9.305C3.69 9.665 3.92 9.96 4.38 10.19V8.54C3.92 8.62 3.69 8.875 3.69 9.305ZM5.325 14.825C5.565 14.775 5.755 14.68 5.895 14.54C6.035 14.39 6.105 14.205 6.105 13.985C6.105 13.635 5.845 13.35 5.325 13.13V14.825Z" fill="#FE8C00"/>
</svg>
