<svg width="14" height="15" viewBox="0 0 14 15" fill="none" xmlns="http://www.w3.org/2000/svg">
<path d="M12.4156 5.32735L8.94434 4.82286L7.39258 1.67696C7.35019 1.59083 7.28047 1.5211 7.19433 1.47872C6.97832 1.37208 6.71582 1.46094 6.60781 1.67696L5.05605 4.82286L1.58476 5.32735C1.48906 5.34102 1.40156 5.38614 1.33457 5.4545C1.25358 5.53774 1.20895 5.64973 1.21049 5.76586C1.21203 5.88199 1.25961 5.99276 1.34277 6.07383L3.8543 8.52247L3.26094 11.9801C3.24702 12.0605 3.25592 12.1432 3.28663 12.2189C3.31733 12.2945 3.36862 12.36 3.43466 12.408C3.50071 12.4559 3.57887 12.4845 3.66029 12.4903C3.74171 12.4961 3.82313 12.4789 3.89531 12.4408L7.00019 10.8084L10.1051 12.4408C10.1898 12.4859 10.2883 12.501 10.3826 12.4846C10.6205 12.4436 10.7805 12.218 10.7395 11.9801L10.1461 8.52247L12.6576 6.07383C12.726 6.00684 12.7711 5.91934 12.7848 5.82364C12.8217 5.58438 12.6549 5.3629 12.4156 5.32735Z" fill="#FE8C00"/>
</svg>
