<svg width="25" height="24" viewBox="0 0 25 24" fill="none" xmlns="http://www.w3.org/2000/svg">
<path fill-rule="evenodd" clip-rule="evenodd" d="M12.1667 2.3999C9.5157 2.3999 7.36666 4.54894 7.36666 7.1999V8.3999H6.16667C5.55521 8.3999 5.04153 8.85967 4.97401 9.46738L3.77401 20.2674C3.73631 20.6066 3.84487 20.9459 4.07251 21.2002C4.30016 21.4545 4.62534 21.5999 4.96667 21.5999H19.3667C19.708 21.5999 20.0332 21.4545 20.2608 21.2002C20.4885 20.9459 20.597 20.6066 20.5593 20.2674L19.3593 9.46738C19.2918 8.85967 18.7781 8.3999 18.1667 8.3999H16.9667V7.1999C16.9667 4.54894 14.8176 2.3999 12.1667 2.3999ZM14.5667 8.3999V7.1999C14.5667 5.87442 13.4921 4.7999 12.1667 4.7999C10.8412 4.7999 9.76666 5.87442 9.76666 7.1999V8.3999H14.5667ZM7.36666 11.9999C7.36666 11.3372 7.90392 10.7999 8.56666 10.7999C9.2294 10.7999 9.76666 11.3372 9.76666 11.9999C9.76666 12.6626 9.2294 13.1999 8.56666 13.1999C7.90392 13.1999 7.36666 12.6626 7.36666 11.9999ZM15.7667 10.7999C15.1039 10.7999 14.5667 11.3372 14.5667 11.9999C14.5667 12.6626 15.1039 13.1999 15.7667 13.1999C16.4294 13.1999 16.9667 12.6626 16.9667 11.9999C16.9667 11.3372 16.4294 10.7999 15.7667 10.7999Z" fill="#C2C2C2"/>
</svg>
